<?xml version="1.0" standalone="no"?><!DOCTYPE svg PUBLIC "-//W3C//DTD SVG 1.1//EN" "http://www.w3.org/Graphics/SVG/1.1/DTD/svg11.dtd"><svg t="1655799232613" class="icon" viewBox="0 0 1024 1024" version="1.1" xmlns="http://www.w3.org/2000/svg" p-id="4829" xmlns:xlink="http://www.w3.org/1999/xlink" width="200" height="200"><defs><style type="text/css"></style></defs><path d="M513.17 959.63c-246.52 0-447.06-200.53-447.06-447.02S266.65 65.6 513.17 65.6c246.49 0 447.02 200.53 447.02 447.02S759.66 959.63 513.17 959.63z m0-818.62c-204.91 0-371.64 166.69-371.64 371.61s166.73 371.61 371.64 371.61 371.61-166.69 371.61-371.61-166.69-371.61-371.61-371.61z" fill="#4784BB" p-id="4830"></path><path d="M334.73 757.81c-4.9 0-9.79-1.1-14.32-2.98-4.9-1.91-9.06-4.93-12.45-8.32s-6.41-7.55-8.28-12.04c-1.88-4.53-2.65-9.43-2.65-14.73 0-4.9 0.77-9.79 2.65-14.32 2.25-4.53 4.9-8.65 8.28-12.08 1.88-1.88 3.79-3.39 5.67-4.9 2.25-1.1 4.12-2.61 6.78-3.39 2.28-1.14 4.53-1.51 6.78-2.25 4.93-0.77 10.2-0.77 14.73 0 2.65 0.74 4.9 1.1 7.14 2.25 2.28 0.77 4.53 2.28 6.41 3.39 2.28 1.51 4.16 3.02 5.67 4.9 3.76 3.42 6.41 7.55 8.28 12.08 1.91 4.53 3.02 9.43 3.02 14.32 0 5.3-1.1 10.2-3.02 14.73-1.88 4.49-4.53 8.65-8.28 12.04-6.78 7.18-16.21 11.3-26.41 11.3zM453.67 757.63c-20.84 0-37.71-16.86-37.71-37.71v-56.48c0-20.84 16.86-37.71 37.71-37.71 20.84 0 37.71 16.86 37.71 37.71v56.48c-0.01 20.84-16.87 37.71-37.71 37.71zM572.64 757.63c-20.84 0-37.71-16.86-37.71-37.71V550.43c0-20.84 16.86-37.71 37.71-37.71s37.71 16.86 37.71 37.71v169.49c0 20.84-16.87 37.71-37.71 37.71zM691.61 757.63c-20.84 0-37.71-16.86-37.71-37.71V437.46c0-20.84 16.86-37.71 37.71-37.71s37.71 16.86 37.71 37.71v282.46c0 20.84-16.87 37.71-37.71 37.71z" fill="#4784BB" p-id="4831"></path><path d="M325.75 589.17c-17.86 0-33.73-12.74-37.04-30.97-3.76-20.47 9.83-40.1 30.34-43.82 52.21-9.54 129.32-33.91 199.87-96.07 40.73-35.86 73.5-79.06 97.47-128.36 9.1-18.71 31.56-26.51 50.41-17.42 18.71 9.1 26.51 31.67 17.42 50.41-28.35 58.33-67.2 109.44-115.44 151.93-83.55 73.61-174.57 102.48-236.25 113.67-2.29 0.44-4.54 0.63-6.78 0.63z" fill="#F84A10" p-id="4832"></path><path d="M700.56 359.77c-13.03 0-25.7-6.78-32.7-18.85l-20.36-35.28L612.22 326c-18.01 10.35-41.09 4.2-51.51-13.81-10.42-18.04-4.23-41.09 13.81-51.51l67.94-39.22c17.97-10.42 41.06-4.23 51.51 13.81l39.22 67.94c10.42 18.04 4.23 41.09-13.81 51.51a37.457 37.457 0 0 1-18.82 5.05z" fill="#F84A10" p-id="4833"></path></svg>